<svg width="242" height="132" viewBox="0 0 242 132" fill="none" xmlns="http://www.w3.org/2000/svg">
<path d="M4.72266 66.5781L4.01953 66.7539C3.90234 66.8711 3.57031 66.9688 3.02344 67.0469C2.47656 67.125 1.94922 67.125 1.44141 67.0469C0.933594 66.9688 0.699219 66.7734 0.738281 66.4609C0.660156 65.3281 1.38281 64.8203 2.90625 64.9375C4.50781 65.0547 5.44531 64.5469 5.71875 63.4141L8.47266 52.9258L9.58594 51.8125C9.97656 51.9297 10.1719 52.2812 10.1719 52.8672L10.1133 53.4531L7.35938 64.5273V64.8203C7.67188 64.9375 8.14062 64.9961 8.76562 64.9961C9.39062 64.9961 10.5039 64.7812 12.1055 64.3516C13.707 63.8828 14.625 63.6484 14.8594 63.6484C14.8594 65.7969 13.4141 66.8711 10.5234 66.8711C9.625 66.8711 8.60938 66.7734 7.47656 66.5781C6.61719 68.5312 6.1875 70.3281 6.1875 71.9688C6.1875 73.5703 6.61719 75.0547 7.47656 76.4219C8.33594 77.75 9.66406 78.4141 11.4609 78.4141C13.2969 78.1406 14.7031 77.7109 15.6797 77.125C16.6953 76.5 17.4375 76.0703 17.9062 75.8359C18.375 75.5625 18.8438 75.4258 19.3125 75.4258C19.7812 75.4258 20.2891 75.4844 20.8359 75.6016C19.7422 77.5547 16.5781 78.8438 11.3438 79.4688C11.2266 79.4688 11.1289 79.4688 11.0508 79.4688C8.35547 79.4688 6.53906 78.4727 5.60156 76.4805C4.89844 75.0352 4.54688 73.375 4.54688 71.5C4.54688 69.5859 4.60547 67.9453 4.72266 66.5781ZM41.9297 76.3047C39.8203 77.8281 37.5156 78.5898 35.0156 78.5898C33.7266 78.5898 32.6719 78.1992 31.8516 77.418C31.0703 76.6367 30.582 75.6602 30.3867 74.4883C30.1914 73.2773 30.0547 72.2031 29.9766 71.2656C29.9375 70.2891 29.918 69.4883 29.918 68.8633C29.918 68.1992 29.957 67.5156 30.0352 66.8125C29.918 66.3828 29.3711 66.168 28.3945 66.168C27.457 66.168 26.5391 66.6562 25.6406 67.6328C24.7422 68.6094 24 69.7812 23.4141 71.1484C22.8672 72.4766 22.3203 73.8047 21.7734 75.1328C21.2656 76.4609 20.7773 77.457 20.3086 78.1211C19.8398 78.7852 19.4492 79.1172 19.1367 79.1172C18.8242 79.1172 18.5898 79.0781 18.4336 79C18.3945 78.7656 18.375 78.4922 18.375 78.1797C18.375 76.2266 19.0586 72.0273 20.4258 65.582C21.793 59.1367 23.1406 53.6094 24.4688 49C24.5469 48.7266 24.7617 48.1406 25.1133 47.2422C25.5039 46.3047 25.9141 45.6406 26.3438 45.25C26.7734 44.8203 27.2227 44.6055 27.6914 44.6055C28.1602 44.6055 28.5312 44.7031 28.8047 44.8984V44.7812C29.1953 45.0547 29.5078 45.7188 29.7422 46.7734C29.9766 47.8281 30.0938 48.668 30.0938 49.293C30.0938 52.9648 29.1367 56.3242 27.2227 59.3711C26.4414 60.6211 25.6602 61.793 24.8789 62.8867C24.0977 63.9805 23.4727 65.0156 23.0039 65.9922C22.5742 66.9688 22.3594 67.6914 22.3594 68.1602C22.3594 68.6289 22.3594 68.9219 22.3594 69.0391C24.5078 66.0312 26.793 64.5273 29.2148 64.5273C30.0742 64.5273 30.6992 64.625 31.0898 64.8203C31.4023 65.0156 31.5977 65.2891 31.6758 65.6406C31.7539 65.9531 31.793 66.793 31.793 68.1602C31.832 69.4883 31.8906 70.6406 31.9688 71.6172C32.0859 72.5547 32.2617 73.5703 32.4961 74.6641C32.7305 75.7188 33.043 76.4023 33.4336 76.7148C33.8633 77.0273 34.2539 77.1836 34.6055 77.1836C34.957 77.1836 35.3281 77.0859 35.7188 76.8906C39.1562 75.2109 41.4219 74.3711 42.5156 74.3711C43.0234 74.3711 43.2773 74.5273 43.2773 74.8398C43.2773 75.1523 42.8281 75.6406 41.9297 76.3047ZM26.1094 49.7031C24.6641 55.2891 23.9219 58.4727 23.8828 59.2539C23.8828 59.9961 23.8828 60.4062 23.8828 60.4844L23.9414 61.3047C25.7773 60.5625 27.0859 57.3203 27.8672 51.5781C28.1016 49.8984 28.2188 48.5312 28.2188 47.4766C28.2188 46.4219 28.043 45.8945 27.6914 45.8945C27.3398 45.8945 26.8125 47.1641 26.1094 49.7031ZM42.1055 72.8477C42.0664 72.4961 42.0469 72.1641 42.0469 71.8516C42.0469 69.3516 42.8672 66.7734 44.5078 64.1172C46.1875 61.4609 48.3359 60.1328 50.9531 60.1328C51.4609 60.1328 51.8711 60.2891 52.1836 60.6016C52.4961 60.875 52.6523 61.3633 52.6523 62.0664C52.6523 62.7305 52.457 63.5312 52.0664 64.4688C51.7148 65.3672 51.1484 66.2852 50.3672 67.2227C49.625 68.1602 48.9805 68.9219 48.4336 69.5078C47.8867 70.0938 47.1055 70.8555 46.0898 71.793C45.1133 72.7305 44.5273 73.2969 44.332 73.4922C44.293 73.8047 44.2734 73.9805 44.2734 74.0195C44.2734 75.0742 44.7812 75.8945 45.7969 76.4805C46.8125 77.0664 47.8672 77.3594 48.9609 77.3594C51.5781 77.3594 53.6484 76.8906 55.1719 75.9531C56.7344 75.0156 58.5312 73.4336 60.5625 71.207C60.875 70.8164 61.0508 70.5039 61.0898 70.2695C61.168 70.0352 61.3828 69.7812 61.7344 69.5078C62.125 69.6641 62.3203 70.0352 62.3203 70.6211C61.9297 71.832 61.1484 73.1406 59.9766 74.5469C58.8047 75.9141 57.418 77.0859 55.8164 78.0625C53.5898 79.3516 51.6953 79.9961 50.1328 79.9961C48.6094 79.9961 47.125 79.4688 45.6797 78.4141C44.2344 77.3594 43.043 75.5039 42.1055 72.8477ZM51.0703 62.3008C49.3906 62.3008 47.8281 63.1992 46.3828 64.9961C44.9375 66.793 44.2148 68.5117 44.2148 70.1523C44.2148 70.6992 44.2539 71.0898 44.332 71.3242C45.7773 70.543 47.2617 69.2148 48.7852 67.3398C50.3086 65.4258 51.0703 63.7461 51.0703 62.3008ZM88.9805 68.3359C88.9805 66.1875 89.0586 63.707 89.2148 60.8945C89.6055 60.8945 89.9375 61.0508 90.2109 61.3633C90.5234 61.6367 90.6602 62.0664 90.6211 62.6523C90.582 63.2383 90.5625 64.8984 90.5625 67.6328C90.5625 70.3672 90.6016 72.1055 90.6797 72.8477C90.8359 75.1133 91.2852 76.2461 92.0273 76.2461C92.418 76.2461 92.9062 75.9336 93.4922 75.3086C94.8984 73.7461 96.1875 71.2656 97.3594 67.8672C97.7891 66.5391 98.0039 65.6992 98.0039 65.3477C98.0039 64.957 98.0039 64.7227 98.0039 64.6445H99.4102C99.4883 65.0742 99.625 66.2656 99.8203 68.2188C100.367 72.8672 100.973 75.5625 101.637 76.3047C102.535 76.1094 103.18 74.8594 103.57 72.5547C103.961 70.2109 104.156 68.3164 104.156 66.8711L105.27 65.6992C105.582 66.7148 105.797 67.3984 105.914 67.75C106.07 68.1016 106.305 68.4727 106.617 68.8633C106.93 69.2539 107.281 69.4883 107.672 69.5664C108.102 69.6445 108.688 69.6836 109.43 69.6836C110.875 68.7461 111.734 68.2773 112.008 68.2773C112.32 68.2773 112.477 68.3359 112.477 68.4531C112.477 69 111.988 69.625 111.012 70.3281C110.074 70.9922 109.488 71.3242 109.254 71.3242C109.02 71.3242 108.883 71.3242 108.844 71.3242C107.398 71.3242 106.402 71.1289 105.855 70.7383C105.816 70.8945 105.719 71.3633 105.562 72.1445C105.406 72.9258 105.23 73.6289 105.035 74.2539C104.84 74.8398 104.586 75.4844 104.273 76.1875C103.609 77.75 102.633 78.5312 101.344 78.5312C100.797 78.5312 100.328 78.1211 99.9375 77.3008C99.4297 76.3242 98.9805 75.1133 98.5898 73.668C98.1992 72.1836 98.0039 71.4023 98.0039 71.3242C95.2305 76.3242 93.1016 78.8242 91.6172 78.8242C89.8594 78.8242 88.9805 75.3281 88.9805 68.3359ZM110.836 72.8477C110.797 72.4961 110.777 72.1641 110.777 71.8516C110.777 69.3516 111.598 66.7734 113.238 64.1172C114.918 61.4609 117.066 60.1328 119.684 60.1328C120.191 60.1328 120.602 60.2891 120.914 60.6016C121.227 60.875 121.383 61.3633 121.383 62.0664C121.383 62.7305 121.188 63.5312 120.797 64.4688C120.445 65.3672 119.879 66.2852 119.098 67.2227C118.355 68.1602 117.711 68.9219 117.164 69.5078C116.617 70.0938 115.836 70.8555 114.82 71.793C113.844 72.7305 113.258 73.2969 113.062 73.4922C113.023 73.8047 113.004 73.9805 113.004 74.0195C113.004 75.0742 113.512 75.8945 114.527 76.4805C115.543 77.0664 116.598 77.3594 117.691 77.3594C120.309 77.3594 122.379 76.8906 123.902 75.9531C125.465 75.0156 127.262 73.4336 129.293 71.207C129.605 70.8164 129.781 70.5039 129.82 70.2695C129.898 70.0352 130.113 69.7812 130.465 69.5078C130.855 69.6641 131.051 70.0352 131.051 70.6211C130.66 71.832 129.879 73.1406 128.707 74.5469C127.535 75.9141 126.148 77.0859 124.547 78.0625C122.32 79.3516 120.426 79.9961 118.863 79.9961C117.34 79.9961 115.855 79.4688 114.41 78.4141C112.965 77.3594 111.773 75.5039 110.836 72.8477ZM119.801 62.3008C118.121 62.3008 116.559 63.1992 115.113 64.9961C113.668 66.793 112.945 68.5117 112.945 70.1523C112.945 70.6992 112.984 71.0898 113.062 71.3242C114.508 70.543 115.992 69.2148 117.516 67.3398C119.039 65.4258 119.801 63.7461 119.801 62.3008ZM130.113 74.4297C130.895 71.8516 131.734 69.7812 132.633 68.2188C133.57 66.6562 134.684 65.543 135.973 64.8789C137.262 64.1758 138.434 63.7461 139.488 63.5898C140.543 63.3945 142.008 63.2969 143.883 63.2969C144 62.8281 144.195 61.9102 144.469 60.543C144.742 59.1367 144.938 58.1992 145.055 57.7305C145.211 57.2227 145.426 56.4609 145.699 55.4453C146.168 53.7656 146.637 52.4961 147.105 51.6367C147.613 50.7383 147.926 50.1719 148.043 49.9375C148.16 49.7031 148.238 49.5469 148.277 49.4688C148.355 49.3516 148.453 49.2344 148.57 49.1172C148.727 48.9609 148.98 48.8828 149.332 48.8828C150.543 48.8828 151.148 50.1719 151.148 52.75V53.2773C151.148 55.3086 150.289 58.1211 148.57 61.7148C146.852 65.2695 145.992 67.9844 145.992 69.8594C145.992 74.0391 147.125 76.1289 149.391 76.1289C150.133 76.1289 151.148 75.8359 152.438 75.25C153.727 74.6641 154.742 74.3711 155.484 74.3711L156.07 74.4297C155.406 75.4453 154.41 76.2461 153.082 76.832C151.793 77.418 150.719 77.7109 149.859 77.7109C149.039 77.7109 148.473 77.6914 148.16 77.6523C147.848 77.6133 147.555 77.5352 147.281 77.418C147.008 77.2617 146.773 77.1445 146.578 77.0664C146.422 76.9883 146.227 76.8125 145.992 76.5391C145.797 76.2266 145.641 76.0117 145.523 75.8945C145.445 75.7773 145.309 75.5039 145.113 75.0742C144.918 74.6445 144.781 74.3711 144.703 74.2539C144.664 74.1367 144.527 73.8047 144.293 73.2578C144.098 72.7109 143.961 72.3594 143.883 72.2031C143.766 72.3203 143.316 72.8086 142.535 73.668C141.754 74.4883 141.207 75.0547 140.895 75.3672C140.582 75.6406 140.035 76.1094 139.254 76.7734C138.512 77.4375 137.887 77.9062 137.379 78.1797C135.934 78.9609 134.645 79.3516 133.512 79.3516C132.418 79.3516 131.617 79.0977 131.109 78.5898C130.641 78.043 130.348 77.4766 130.23 76.8906C130.152 76.2656 130.113 75.4453 130.113 74.4297ZM140.719 65.4648C138.531 65.4648 136.559 66.4805 134.801 68.5117C133.082 70.543 132.223 72.5938 132.223 74.6641C132.223 76.6953 132.77 77.7109 133.863 77.7109C135.387 77.7109 137.34 76.5586 139.723 74.2539C142.145 71.9102 143.355 69.918 143.355 68.2773C143.355 67.3008 143.141 66.5977 142.711 66.168C142.32 65.6992 141.656 65.4648 140.719 65.4648ZM149.449 51.6953C148.434 53.1016 147.594 54.9961 146.93 57.3789C146.305 59.7227 145.992 61.6953 145.992 63.2969C145.992 63.375 146.012 63.5508 146.051 63.8242L146.578 63.2969C147.047 62.8281 148.004 60.0547 149.449 54.9766L149.508 54.2734C149.508 53.8047 149.508 53.5117 149.508 53.3945C149.508 53.2773 149.488 52.9844 149.449 52.5156C149.449 52.0469 149.449 51.7734 149.449 51.6953ZM154.488 74.4297C155.27 71.8516 156.109 69.7812 157.008 68.2188C157.945 66.6562 159.059 65.543 160.348 64.8789C161.637 64.1758 162.809 63.7461 163.863 63.5898C164.918 63.3945 166.383 63.2969 168.258 63.2969C168.375 62.8281 168.57 61.9102 168.844 60.543C169.117 59.1367 169.312 58.1992 169.43 57.7305C169.586 57.2227 169.801 56.4609 170.074 55.4453C170.543 53.7656 171.012 52.4961 171.48 51.6367C171.988 50.7383 172.301 50.1719 172.418 49.9375C172.535 49.7031 172.613 49.5469 172.652 49.4688C172.73 49.3516 172.828 49.2344 172.945 49.1172C173.102 48.9609 173.355 48.8828 173.707 48.8828C174.918 48.8828 175.523 50.1719 175.523 52.75V53.2773C175.523 55.3086 174.664 58.1211 172.945 61.7148C171.227 65.2695 170.367 67.9844 170.367 69.8594C170.367 74.0391 171.5 76.1289 173.766 76.1289C174.508 76.1289 175.523 75.8359 176.812 75.25C178.102 74.6641 179.117 74.3711 179.859 74.3711L180.445 74.4297C179.781 75.4453 178.785 76.2461 177.457 76.832C176.168 77.418 175.094 77.7109 174.234 77.7109C173.414 77.7109 172.848 77.6914 172.535 77.6523C172.223 77.6133 171.93 77.5352 171.656 77.418C171.383 77.2617 171.148 77.1445 170.953 77.0664C170.797 76.9883 170.602 76.8125 170.367 76.5391C170.172 76.2266 170.016 76.0117 169.898 75.8945C169.82 75.7773 169.684 75.5039 169.488 75.0742C169.293 74.6445 169.156 74.3711 169.078 74.2539C169.039 74.1367 168.902 73.8047 168.668 73.2578C168.473 72.7109 168.336 72.3594 168.258 72.2031C168.141 72.3203 167.691 72.8086 166.91 73.668C166.129 74.4883 165.582 75.0547 165.27 75.3672C164.957 75.6406 164.41 76.1094 163.629 76.7734C162.887 77.4375 162.262 77.9062 161.754 78.1797C160.309 78.9609 159.02 79.3516 157.887 79.3516C156.793 79.3516 155.992 79.0977 155.484 78.5898C155.016 78.043 154.723 77.4766 154.605 76.8906C154.527 76.2656 154.488 75.4453 154.488 74.4297ZM165.094 65.4648C162.906 65.4648 160.934 66.4805 159.176 68.5117C157.457 70.543 156.598 72.5938 156.598 74.6641C156.598 76.6953 157.145 77.7109 158.238 77.7109C159.762 77.7109 161.715 76.5586 164.098 74.2539C166.52 71.9102 167.73 69.918 167.73 68.2773C167.73 67.3008 167.516 66.5977 167.086 66.168C166.695 65.6992 166.031 65.4648 165.094 65.4648ZM173.824 51.6953C172.809 53.1016 171.969 54.9961 171.305 57.3789C170.68 59.7227 170.367 61.6953 170.367 63.2969C170.367 63.375 170.387 63.5508 170.426 63.8242L170.953 63.2969C171.422 62.8281 172.379 60.0547 173.824 54.9766L173.883 54.2734C173.883 53.8047 173.883 53.5117 173.883 53.3945C173.883 53.2773 173.863 52.9844 173.824 52.5156C173.824 52.0469 173.824 51.7734 173.824 51.6953ZM179.449 66.4609L179.684 65.6992C180.465 63.1992 181.129 61.9492 181.676 61.9492C182.457 61.9492 182.848 62.2422 182.848 62.8281C182.848 62.9453 182.828 63.0625 182.789 63.1797C181.305 66.8125 180.562 70.2695 180.562 73.5508C180.562 75.0352 180.934 76.2852 181.676 77.3008C182.418 78.2773 183.551 78.7656 185.074 78.7656C188.902 77.2812 191.305 76.5391 192.281 76.5391C192.594 76.5391 192.75 76.6172 192.75 76.7734C192.75 77.2422 191.734 77.9258 189.703 78.8242C187.672 79.6836 186.07 80.1133 184.898 80.1133C183.766 80.1133 182.906 80.0156 182.32 79.8203C181.734 79.6641 181.305 79.5078 181.031 79.3516C180.758 79.1953 180.426 78.8633 180.035 78.3555C179.645 77.8086 179.391 77.1055 179.273 76.2461C179.156 75.3477 179.098 74.0781 179.098 72.4375C179.098 70.7969 179.215 68.8047 179.449 66.4609ZM204.176 72.9062C204.176 72.2031 204.176 70.9922 204.176 69.2734C204.215 67.5156 204.234 66.0117 204.234 64.7617C203.141 64.9961 201.539 66.4023 199.43 68.9805C197.359 71.5586 196.227 72.9062 196.031 73.0234C194.508 75.0547 193.316 76.5 192.457 77.3594C192.105 77.8281 191.539 78.0625 190.758 78.0625V76.7734L193.277 68.6289C193.277 65.7773 193.766 63.668 194.742 62.3008C195.016 61.9102 195.27 61.7148 195.504 61.7148C195.895 61.7148 196.09 62.3789 196.09 63.707C196.09 64.9961 195.895 66.4414 195.504 68.043C195.113 69.6055 194.918 70.9141 194.918 71.9688C195.23 71.6562 196.168 70.5625 197.73 68.6875C199.293 66.8125 200.23 65.7188 200.543 65.4062C200.816 65.25 201.285 64.8594 201.949 64.2344C203.355 62.9844 204.586 62.3594 205.641 62.3594C206.227 62.3594 206.598 62.5547 206.754 62.9453C206.793 63.375 206.812 64.0781 206.812 65.0547C206.812 65.9922 206.656 67.4961 206.344 69.5664C206.031 71.5977 205.855 73.2188 205.816 74.4297C205.816 76.2656 206.578 77.1836 208.102 77.1836C209.195 77.1836 210.25 76.8906 211.266 76.3047C212.281 75.6797 213.102 74.9961 213.727 74.2539C214.352 73.4727 215.074 72.5938 215.895 71.6172C216.715 70.6016 217.438 69.8594 218.062 69.3906V69.9766C218.062 71.8516 216.852 73.8047 214.43 75.8359C212.008 77.8281 209.801 78.8242 207.809 78.8242H205.875C205.289 78.4336 204.898 78.0625 204.703 77.7109C204.547 77.3594 204.43 77.1055 204.352 76.9492C204.273 76.793 204.215 76.5586 204.176 76.2461C204.176 75.8945 204.176 75.6406 204.176 75.4844V72.9062ZM229.84 66.5195L229.371 78.5898C229.371 78.6289 229.371 78.8047 229.371 79.1172C229.41 79.4297 229.43 79.625 229.43 79.7031C230.602 79.2344 232.34 78.3359 234.645 77.0078C236.949 75.6406 239.078 74.6836 241.031 74.1367C241.422 74.3711 241.617 74.6641 241.617 75.0156C241.617 75.0938 240.719 75.5625 238.922 76.4219C233.297 79.1562 229.938 81.168 228.844 82.457C228.258 88.4727 227.77 92.3789 227.379 94.1758C227.027 95.9727 226.793 97.1055 226.676 97.5742C226.598 98.082 226.383 98.8047 226.031 99.7422C225.68 100.68 225.309 101.363 224.918 101.793C223.863 102.965 222.652 103.551 221.285 103.551C219.918 103.551 218.57 103.277 217.242 102.73C215.953 102.223 215.016 101.559 214.43 100.738C214.352 100.348 214.312 99.7031 214.312 98.8047C214.312 95.9141 215.855 92.5938 218.941 88.8438C219.176 88.6484 219.898 88.0625 221.109 87.0859C224.352 84.4688 226.207 82.9258 226.676 82.457C227.066 81.793 227.262 80.5039 227.262 78.5898C227.262 78.4727 227.242 78.1016 227.203 77.4766C227.203 76.8516 227.203 76.4805 227.203 76.3633C224.391 78.2383 222.047 79.1758 220.172 79.1758C218.531 79.0977 217.34 78.1797 216.598 76.4219C216.285 75.6406 216.129 74.7031 216.129 73.6094C216.129 72.4766 216.637 71.168 217.652 69.6836C219.293 67.3398 222.008 65.6211 225.797 64.5273C228.492 64.5273 229.84 65.1914 229.84 66.5195ZM216.07 98.5703C216.07 99.5469 216.617 100.328 217.711 100.914C218.805 101.539 219.918 101.852 221.051 101.852C222.223 101.852 223.219 101.148 224.039 99.7422C224.898 98.375 225.484 96.6562 225.797 94.5859C226.383 91.1094 226.676 88.2578 226.676 86.0312V84.6836C224.098 86.3633 221.676 88.4922 219.41 91.0703C217.184 93.6875 216.07 96.1875 216.07 98.5703ZM218.297 76.1289C218.297 77.0664 219 77.5352 220.406 77.5352C222.789 77.457 224.625 76.5195 225.914 74.7227C227.203 72.9258 227.848 71.3633 227.848 70.0352C227.848 69.918 227.848 69.8008 227.848 69.6836V69.0977C227.848 68.2383 227.652 67.5547 227.262 67.0469C226.871 66.5 226.324 66.2266 225.621 66.2266C225.465 66.1875 225.289 66.168 225.094 66.168C223.336 66.168 221.715 67.1641 220.23 69.1562C218.785 71.1484 218.062 72.9258 218.062 74.4883C218.062 75.0352 218.141 75.582 218.297 76.1289Z" fill="#9A7C44"/>
<path d="M53.7538 35.2C55.5671 35.2 56.8791 34.704 57.6898 33.712L58.0098 33.28L58.4738 33.664C58.0578 34.208 57.7645 34.5547 57.5938 34.704C57.4338 34.8427 57.2578 34.9813 57.0658 35.12C56.8845 35.2587 56.7031 35.3707 56.5218 35.456C56.3511 35.5413 56.2285 35.6053 56.1538 35.648L55.9138 35.744C55.1458 36.032 54.3405 36.176 53.4978 36.176C52.6551 36.176 51.8978 36.0213 51.2258 35.712C50.5645 35.4027 49.9938 34.9653 49.5138 34.4C49.0338 33.8347 48.6445 33.136 48.3458 32.304C48.0471 31.472 47.8978 30.6667 47.8978 29.888C47.8978 27.9253 48.7298 26.3093 50.3938 25.04C51.3111 24.3573 52.2925 24.016 53.3378 24.016C54.3831 24.016 55.2365 24.144 55.8978 24.4C55.9511 24.4213 55.9885 24.432 56.0098 24.432C56.0418 24.432 56.0578 24.4107 56.0578 24.368C56.0578 24.3253 56.0258 24.256 55.9618 24.16H56.7618L58.3138 26.528L57.8658 26.896L57.5298 26.464L56.8898 25.856C56.4098 25.3973 55.9191 25.12 55.4178 25.024C54.9271 24.928 54.4685 24.88 54.0418 24.88C53.6151 24.88 53.2045 24.9493 52.8098 25.088C52.4151 25.216 52.0205 25.424 51.6258 25.712C51.2418 26 50.8898 26.336 50.5698 26.72C50.2498 27.104 49.9938 27.5573 49.8018 28.08C49.6098 28.6027 49.5138 29.1413 49.5138 29.696C49.5138 31.2213 49.9245 32.5227 50.7458 33.6C51.5778 34.6667 52.5805 35.2 53.7538 35.2ZM74.3812 35.28H75.2612V36H70.4932V35.28H71.4532C71.6772 35.28 71.8319 35.216 71.9172 35.088C72.0132 34.96 72.0612 34.848 72.0612 34.752V34.544L71.0372 31.712H66.5572L65.5652 34.544V34.736C65.5652 34.8427 65.6185 34.9547 65.7252 35.072C65.8319 35.1787 65.9812 35.248 66.1732 35.28H67.1332V36H62.9572V35.28H63.7572C63.9492 35.248 64.1305 35.1627 64.3012 35.024C64.4612 34.8853 64.5732 34.7253 64.6372 34.544L68.3492 24.16H69.7892L73.5012 34.544C73.6505 34.9707 73.9439 35.216 74.3812 35.28ZM66.8452 30.96H70.7812L68.8132 25.44L66.8452 30.96ZM90.6953 35.28H91.5913V36H86.5033V35.28H87.6233C87.8473 35.28 87.9593 35.2267 87.9593 35.12C87.9593 35.0453 87.9166 34.9547 87.8313 34.848L84.5673 30.736H83.1433V34.816C83.1433 35.1253 83.3833 35.28 83.8633 35.28H84.9193V36H79.7353V35.28H80.8873C81.0473 35.28 81.1966 35.2373 81.3353 35.152C81.4846 35.056 81.5593 34.944 81.5593 34.816V25.664C81.5593 25.4827 81.4846 25.3173 81.3353 25.168C81.1966 25.0187 81.0153 24.944 80.7913 24.944H79.7353V24.224H85.5433C86.706 24.224 87.618 24.5493 88.2793 25.2C88.9513 25.84 89.2873 26.6507 89.2873 27.632C89.2873 29.456 88.2633 30.4747 86.2153 30.688L89.5113 34.848C89.7566 35.136 90.1513 35.28 90.6953 35.28ZM83.1433 25.584V30.016H85.2073C86.786 30.016 87.5753 29.216 87.5753 27.616C87.5753 26.0053 87.0793 25.136 86.0873 25.008C85.7566 24.9653 85.25 24.944 84.5673 24.944C83.8846 24.944 83.474 25.008 83.3353 25.136C83.2073 25.2533 83.1433 25.4027 83.1433 25.584ZM98.9399 35.488C98.0333 34.9333 97.3026 34.1973 96.7479 33.28C96.1933 32.3627 95.9159 31.3493 95.9159 30.24C95.9159 29.1307 96.1933 28.112 96.7479 27.184C97.3026 26.2453 98.0333 25.4933 98.9399 24.928C99.8466 24.3627 100.849 24.08 101.948 24.08C103.047 24.08 104.044 24.3467 104.94 24.88C105.847 25.4133 106.577 26.1493 107.132 27.088C107.697 28.016 107.98 29.0613 107.98 30.224C107.98 31.376 107.697 32.4107 107.132 33.328C106.577 34.2453 105.847 34.976 104.94 35.52C104.044 36.0533 103.047 36.32 101.948 36.32C100.849 36.32 99.8466 36.0427 98.9399 35.488ZM102.044 24.928H101.516C100.609 24.928 99.7666 25.4507 98.9879 26.496C98.2093 27.5413 97.8199 28.8107 97.8199 30.304C97.8199 31.7973 98.2359 33.0293 99.0679 34C99.8999 34.9707 100.897 35.456 102.06 35.456C103.233 35.456 104.193 34.9653 104.94 33.984C105.697 32.992 106.076 31.7173 106.076 30.16C106.076 28.6027 105.66 27.344 104.828 26.384C104.007 25.4133 103.079 24.928 102.044 24.928ZM127.504 30.928V31.92H124.48V34.944H123.488V31.92H120.464V30.928H123.488V27.888H124.48V30.928H127.504ZM146.398 29.344C146.931 29.1733 147.198 28.8213 147.198 28.288V27.568H147.918V31.856H147.198V31.04C147.198 30.624 146.931 30.304 146.398 30.08H143.454V34.544C143.507 34.8533 143.672 35.0827 143.95 35.232H145.358V36H140.142V35.28H141.278C141.576 35.2373 141.795 35.0827 141.934 34.816V25.68C141.902 25.4987 141.816 25.344 141.678 25.216C141.55 25.0773 141.384 24.992 141.182 24.96H140.142V24.24H149.806V26.784H149.086V25.808C149.043 25.5093 148.776 25.2373 148.286 24.992H144.03C143.848 25.024 143.656 25.2267 143.454 25.6V29.344H146.398ZM161.437 29.344C161.97 29.1733 162.237 28.8213 162.237 28.288V27.568H162.957V31.856H162.237V31.04C162.237 30.624 161.97 30.304 161.437 30.08H158.013V34.544C158.066 34.8533 158.232 35.0827 158.509 35.232L163.069 35.248C163.624 35.1733 163.901 34.8747 163.901 34.352V33.472H164.621V36H154.701V35.28H155.837C156.136 35.2373 156.354 35.0827 156.493 34.816V25.68C156.461 25.4987 156.376 25.344 156.237 25.216C156.109 25.0773 155.944 24.992 155.741 24.96H154.701V24.24H164.365V26.784H163.645V25.808C163.602 25.5093 163.336 25.2373 162.845 24.992H158.589C158.408 25.024 158.216 25.2267 158.013 25.6V29.344H161.437ZM176.092 24.24C176.796 24.24 177.484 24.5333 178.156 25.12C178.828 25.696 179.367 26.4427 179.772 27.36C180.178 28.2773 180.38 29.1947 180.38 30.112C180.38 31.0187 180.178 31.9253 179.772 32.832C179.378 33.728 178.818 34.48 178.092 35.088C177.378 35.696 176.61 36 175.788 36H169.26V35.28H170.396C170.695 35.2373 170.914 35.0827 171.052 34.816V25.68C171.02 25.4987 170.935 25.344 170.796 25.216C170.668 25.0773 170.503 24.992 170.3 24.96H169.26V24.24H176.092ZM175.132 35.2C175.804 35.2 176.412 34.9493 176.956 34.448C177.5 33.9467 177.911 33.3173 178.188 32.56C178.476 31.792 178.62 30.9547 178.62 30.048C178.62 29.1307 178.476 28.288 178.188 27.52C177.9 26.7413 177.479 26.1227 176.924 25.664C176.38 25.2053 175.751 24.976 175.036 24.976H173.228C172.94 25.0187 172.722 25.1787 172.572 25.456V34.544C172.626 34.8533 172.791 35.072 173.068 35.2H175.132ZM191.759 29.344C192.292 29.1733 192.559 28.8213 192.559 28.288V27.568H193.279V31.856H192.559V31.04C192.559 30.624 192.292 30.304 191.759 30.08H188.335V34.544C188.388 34.8533 188.553 35.0827 188.831 35.232L193.391 35.248C193.945 35.1733 194.223 34.8747 194.223 34.352V33.472H194.943V36H185.023V35.28H186.159C186.457 35.2373 186.676 35.0827 186.815 34.816V25.68C186.783 25.4987 186.697 25.344 186.559 25.216C186.431 25.0773 186.265 24.992 186.063 24.96H185.023V24.24H194.687V26.784H193.967V25.808C193.924 25.5093 193.657 25.2373 193.167 24.992H188.911C188.729 25.024 188.537 25.2267 188.335 25.6V29.344H191.759Z" fill="#9A7C44"/>
<path d="M39.3503 97.102V96.962H40.5683V105.614C40.5963 105.773 40.6663 105.913 40.7783 106.034C40.8997 106.146 41.0443 106.216 41.2123 106.244H42.2343V107H37.5863V106.244H38.6923V106.23C38.8603 106.211 39.0003 106.146 39.1123 106.034C39.2337 105.913 39.3083 105.773 39.3363 105.614H39.3503V99.426C39.1357 99.5287 38.8417 99.58 38.4683 99.58H37.5723V98.74L37.7683 98.754C38.1603 98.754 38.4823 98.656 38.7343 98.46C38.9863 98.264 39.1497 98.012 39.2243 97.704C39.3083 97.3867 39.3503 97.186 39.3503 97.102ZM50.6876 97.102V96.962H51.9056V105.614C51.9336 105.773 52.0036 105.913 52.1156 106.034C52.2369 106.146 52.3816 106.216 52.5496 106.244H53.5716V107H48.9236V106.244H50.0296V106.23C50.1976 106.211 50.3376 106.146 50.4496 106.034C50.5709 105.913 50.6456 105.773 50.6736 105.614H50.6876V99.426C50.4729 99.5287 50.1789 99.58 49.8056 99.58H48.9096V98.74L49.1056 98.754C49.4976 98.754 49.8196 98.656 50.0716 98.46C50.3236 98.264 50.4869 98.012 50.5616 97.704C50.6456 97.3867 50.6876 97.186 50.6876 97.102ZM68.0281 106.174C67.4308 105.474 67.1321 104.564 67.1321 103.444C67.1321 102.315 67.4308 101.428 68.0281 100.784C68.6348 100.14 69.3955 99.818 70.3101 99.818C71.2248 99.818 71.9575 100.163 72.5081 100.854V98.04H71.4581V97.76L73.1241 96.64H73.6841V106.076C73.7401 106.141 73.8101 106.174 73.8941 106.174C73.9501 106.174 74.1228 105.992 74.4121 105.628V106.258C74.2628 106.874 73.9595 107.182 73.5021 107.182C73.0448 107.182 72.7135 106.851 72.5081 106.188L72.5221 106.146L72.5081 106.118C71.9481 106.846 71.2108 107.21 70.2961 107.21C69.3908 107.21 68.6348 106.865 68.0281 106.174ZM68.5181 103.486C68.5275 104.335 68.7095 105.017 69.0641 105.53C69.4188 106.043 69.9135 106.3 70.5481 106.3C71.7148 106.3 72.3681 105.469 72.5081 103.808V103.052C72.4241 101.503 71.7708 100.723 70.5481 100.714C69.9601 100.714 69.4795 100.957 69.1061 101.442C68.7328 101.927 68.5368 102.609 68.5181 103.486ZM85.1132 106.524C84.2918 106.981 83.4052 107.21 82.4532 107.21C82.4345 107.21 82.4158 107.21 82.3972 107.21C81.2678 107.21 80.3765 106.883 79.7232 106.23C79.0792 105.577 78.7572 104.671 78.7572 103.514C78.7572 102.357 79.0745 101.47 79.7092 100.854C80.4092 100.191 81.2912 99.86 82.3552 99.86C83.4285 99.86 84.2125 100.196 84.7072 100.868C85.2112 101.54 85.4632 102.389 85.4632 103.416V103.752H80.0872C80.1432 104.48 80.3905 105.11 80.8292 105.642C81.2958 106.183 81.9492 106.454 82.7892 106.454C83.6292 106.454 84.4225 106.179 85.1692 105.628L85.1132 106.524ZM84.3152 103.024C84.2872 101.493 83.6618 100.728 82.4392 100.728H82.4112C81.0765 100.728 80.3018 101.493 80.0872 103.024H84.3152ZM103.948 101.106C104.377 100.266 105.026 99.846 105.894 99.846C106.771 99.846 107.429 100.117 107.868 100.658C108.307 101.199 108.526 101.867 108.526 102.66V105.95C108.591 106.23 108.759 106.37 109.03 106.37H109.562V107H106.328V106.37L106.93 106.356H106.944C107.056 106.356 107.196 106.221 107.364 105.95V102.66C107.364 102.119 107.243 101.643 107 101.232C106.767 100.821 106.417 100.616 105.95 100.616C105.483 100.616 105.091 100.765 104.774 101.064C104.457 101.363 104.298 101.717 104.298 102.128V105.95C104.363 106.23 104.531 106.37 104.802 106.37H105.334V107H102.1V106.37L102.702 106.356H102.716C102.828 106.356 102.968 106.221 103.136 105.95V102.66C103.136 102.119 103.019 101.643 102.786 101.232C102.562 100.821 102.212 100.616 101.736 100.616C101.269 100.616 100.873 100.765 100.546 101.064C100.229 101.363 100.07 101.717 100.07 102.128V105.95C100.135 106.23 100.303 106.37 100.574 106.37H101.106V107H97.8721V106.37L98.4741 106.356C98.6608 106.319 98.8054 106.183 98.9081 105.95V101.12H97.8581V100.84L99.5241 99.72H100.07V100.714C100.518 100.145 101.041 99.8553 101.638 99.846H101.68C102.744 99.846 103.5 100.266 103.948 101.106ZM120.886 106.258C120.736 106.874 120.41 107.182 119.906 107.182C119.411 107.182 119.061 106.851 118.856 106.188C118.342 106.86 117.754 107.196 117.092 107.196C116.289 107.196 115.603 107 115.034 106.608C114.464 106.207 114.18 105.707 114.18 105.11V105.068C114.18 104.023 114.768 103.225 115.944 102.674C116.597 102.366 117.115 102.212 117.498 102.212C117.88 102.212 118.333 102.324 118.856 102.548L118.87 101.932C118.87 101.419 118.786 101.078 118.618 100.91C118.254 100.574 117.773 100.406 117.176 100.406C116.578 100.406 115.743 100.742 114.67 101.414L114.642 100.322C115.538 99.874 116.452 99.65 117.386 99.65H117.456C118.025 99.65 118.594 99.8553 119.164 100.266C119.462 100.481 119.7 100.765 119.878 101.12C120.064 101.475 120.158 101.871 120.158 102.31V106.076C120.214 106.141 120.284 106.174 120.368 106.174C120.386 106.174 120.559 105.992 120.886 105.628V106.258ZM118.856 103.654C118.781 103.234 118.44 103.024 117.834 103.024H117.75C117.283 103.024 116.802 103.234 116.308 103.654C115.813 104.074 115.566 104.522 115.566 104.998C115.566 105.063 115.57 105.129 115.58 105.194C115.673 105.959 116.191 106.342 117.134 106.342C117.619 106.342 117.978 106.225 118.212 105.992C118.445 105.759 118.594 105.563 118.66 105.404C118.725 105.245 118.772 105.045 118.8 104.802C118.837 104.559 118.856 104.401 118.856 104.326V103.654ZM130.26 99.79H130.288C130.549 99.79 130.769 99.7993 130.946 99.818C130.806 100.359 130.736 100.728 130.736 100.924C130.549 100.896 130.33 100.882 130.078 100.882C129.341 100.882 128.729 101.204 128.244 101.848C127.768 102.483 127.53 103.117 127.53 103.752V105.95C127.595 106.23 127.763 106.37 128.034 106.37H128.706V107H125.192V106.37L125.934 106.356C126.121 106.319 126.265 106.183 126.368 105.95V101.386H125.318V101.106L126.984 99.986H127.53V101.792C128.081 100.457 128.991 99.79 130.26 99.79ZM137.546 105.726C137.481 105.847 137.448 105.95 137.448 106.034C137.448 106.23 137.626 106.328 137.98 106.328H139.982C140.813 106.328 141.228 105.875 141.228 104.97V104.494H141.858V107H135.292V106.328C135.563 106.291 135.754 106.165 135.866 105.95L139.646 101.26H139.632C139.604 101.101 139.539 100.971 139.436 100.868C139.334 100.765 139.222 100.695 139.1 100.658H137.952C137.019 100.658 136.552 101.115 136.552 102.03V102.506H135.922V100H141.858V100.658H141.802C141.644 100.686 141.476 100.863 141.298 101.19L137.546 105.726ZM149.85 107.266C148.907 107.266 148.109 106.902 147.456 106.174C146.803 105.446 146.476 104.573 146.476 103.556C146.476 102.539 146.803 101.657 147.456 100.91C148.109 100.163 148.907 99.79 149.85 99.79C150.802 99.79 151.619 100.163 152.3 100.91C152.991 101.657 153.336 102.539 153.336 103.556C153.336 104.573 152.991 105.446 152.3 106.174C151.619 106.902 150.802 107.266 149.85 107.266ZM151.95 103.542C151.95 102.739 151.726 102.049 151.278 101.47C150.839 100.882 150.335 100.588 149.766 100.588C149.197 100.588 148.721 100.887 148.338 101.484C147.965 102.072 147.778 102.772 147.778 103.584C147.778 104.387 147.997 105.073 148.436 105.642C148.884 106.202 149.383 106.482 149.934 106.482C150.494 106.482 150.97 106.193 151.362 105.614C151.754 105.035 151.95 104.345 151.95 103.542ZM169.137 96.92C170.929 96.92 171.825 97.7973 171.825 99.552C171.825 100.159 171.689 100.649 171.419 101.022C171.148 101.395 170.616 101.876 169.823 102.464C169.039 103.043 168.474 103.561 168.129 104.018C167.671 104.634 167.438 105.241 167.429 105.838H170.453C170.677 105.838 170.924 105.754 171.195 105.586C171.475 105.418 171.699 105.245 171.867 105.068L172.105 104.816L171.643 107.014H166.225V105.838C166.225 105.11 166.598 104.331 167.345 103.5C167.69 103.117 168.059 102.753 168.451 102.408C169.477 101.475 170.126 100.798 170.397 100.378C170.527 100.154 170.593 99.8507 170.593 99.468C170.593 99.076 170.411 98.74 170.047 98.46C169.683 98.18 169.291 98.04 168.871 98.04C168.451 98.04 168.021 98.1053 167.583 98.236C167.153 98.3667 166.789 98.5207 166.491 98.698L166.351 98.782L166.183 98.068C166.341 97.8813 166.738 97.6433 167.373 97.354C168.007 97.0647 168.595 96.92 169.137 96.92ZM180.418 96.808C181.426 96.808 182.205 97.2653 182.756 98.18C183.316 99.0947 183.596 100.35 183.596 101.946C183.596 103.103 183.423 104.102 183.078 104.942C182.742 105.773 182.266 106.375 181.65 106.748C181.23 107 180.819 107.126 180.418 107.126C179.503 107.126 178.743 106.673 178.136 105.768C177.539 104.853 177.24 103.579 177.24 101.946C177.24 99.4353 177.856 97.8347 179.088 97.144C179.489 96.92 179.933 96.808 180.418 96.808ZM180.418 106.426C180.894 106.426 181.319 106.015 181.692 105.194C182.075 104.363 182.266 103.369 182.266 102.212C182.266 99.0667 181.65 97.494 180.418 97.494C179.886 97.494 179.443 97.8813 179.088 98.656C178.743 99.4213 178.57 100.415 178.57 101.638C178.57 104.037 178.953 105.549 179.718 106.174C179.923 106.342 180.157 106.426 180.418 106.426ZM191.811 96.92C193.603 96.92 194.499 97.7973 194.499 99.552C194.499 100.159 194.364 100.649 194.093 101.022C193.822 101.395 193.29 101.876 192.497 102.464C191.713 103.043 191.148 103.561 190.803 104.018C190.346 104.634 190.112 105.241 190.103 105.838H193.127C193.351 105.838 193.598 105.754 193.869 105.586C194.149 105.418 194.373 105.245 194.541 105.068L194.779 104.816L194.317 107.014H188.899V105.838C188.899 105.11 189.272 104.331 190.019 103.5C190.364 103.117 190.733 102.753 191.125 102.408C192.152 101.475 192.8 100.798 193.071 100.378C193.202 100.154 193.267 99.8507 193.267 99.468C193.267 99.076 193.085 98.74 192.721 98.46C192.357 98.18 191.965 98.04 191.545 98.04C191.125 98.04 190.696 98.1053 190.257 98.236C189.828 98.3667 189.464 98.5207 189.165 98.698L189.025 98.782L188.857 98.068C189.016 97.8813 189.412 97.6433 190.047 97.354C190.682 97.0647 191.27 96.92 191.811 96.92ZM203.736 97.816C203.54 97.676 203.181 97.6013 202.658 97.592H202.63C202.117 97.592 201.492 97.8813 200.754 98.46L200.348 97.9L200.754 97.634C201.706 97.0087 202.467 96.696 203.036 96.696C203.606 96.696 204.091 96.7987 204.492 97.004C204.894 97.2 205.174 97.48 205.332 97.844C205.5 98.1987 205.584 98.5907 205.584 99.02C205.584 99.44 205.402 99.86 205.038 100.28C204.684 100.691 204.128 101.059 203.372 101.386C204.586 101.423 205.412 101.811 205.85 102.548C206.056 102.893 206.158 103.313 206.158 103.808C206.158 104.592 205.888 105.241 205.346 105.754C204.814 106.258 204.119 106.645 203.26 106.916C202.766 107.075 202.252 107.154 201.72 107.154C201.188 107.154 200.67 107.117 200.166 107.042L199.928 106.216L200.18 106.258L200.488 106.3C200.694 106.328 200.983 106.342 201.356 106.342C201.739 106.342 202.084 106.314 202.392 106.258C202.952 106.146 203.503 105.871 204.044 105.432C204.586 104.993 204.856 104.452 204.856 103.808C204.856 102.623 204.105 102.03 202.602 102.03H202.588C202.504 102.021 202.406 102.016 202.294 102.016C202.192 102.016 202.019 102.049 201.776 102.114L201.104 102.296L200.992 101.484L201.566 101.414C201.762 101.386 201.996 101.307 202.266 101.176C203.629 100.467 204.31 99.7013 204.31 98.88C204.31 98.4413 204.119 98.0867 203.736 97.816Z" fill="#9A7C44"/>
</svg>
